<svg xmlns="http://www.w3.org/2000/svg" xmlns:xlink="http://www.w3.org/1999/xlink" xmlns:inkscape="http://www.inkscape.org/namespaces/inkscape" version="1.1" width="525.12" height="675.12" viewBox="0 0 525.12 675.12">
<defs>
<clipPath id="clip_1">
<path transform="matrix(.24,0,0,.24,0,0)" d="M28.125 28.125H2157.2755V2768.3038H28.125Z" clip-rule="evenodd"/>
</clipPath>
<clipPath id="clip_2">
<path transform="matrix(.24,0,0,.24,0,0)" d="M210.80358 332.5893H2037.5894V2524.7322H210.80358Z" clip-rule="evenodd"/>
</clipPath>
<clipPath id="clip_3">
<path transform="matrix(.24,0,0,.24,0,0)" d="M28.125 28.125H2157.2755V2768.3038H28.125Z" clip-rule="evenodd"/>
</clipPath>
<path id="font_4_19" d="M.3178711 .6640625C.26708985 .6640625 .22892253 .6390584 .20336914 .5890503 .17781575 .5390422 .16503906 .4638672 .16503906 .3635254 .16503906 .26350913 .17781575 .1884969 .20336914 .13848877 .22892253 .08848063 .26708985 .06347656 .3178711 .06347656 .36897788 .06347656 .40730796 .08848063 .43286134 .13848877 .4584147 .1884969 .4711914 .26350913 .4711914 .3635254 .4711914 .4638672 .4584147 .5390422 .43286134 .5890503 .40730796 .6390584 .36897788 .6640625 .3178711 .6640625M.3178711 .7421875C.3995768 .7421875 .46199546 .7098592 .50512698 .64520266 .5482585 .5805461 .5698242 .48665367 .5698242 .3635254 .5698242 .24072266 .5482585 .146993 .50512698 .082336429 .46199546 .01767985 .3995768-.0146484379 .3178711-.0146484379 .23616536-.0146484379 .17374675 .01767985 .13061524 .082336429 .08748373 .146993 .06591797 .24072266 .06591797 .3635254 .06591797 .48665367 .08748373 .5805461 .13061524 .64520266 .17374675 .7098592 .23616536 .7421875 .3178711 .7421875Z"/>
<path id="font_4_17" d="M.106933597 .12402344H.20996094V0H.106933597V.12402344Z"/>
<path id="font_4_21" d="M.19189453 .08300781H.5361328V0H.07324219V.08300781C.110677089 .12174479 .16170247 .17374675 .22631836 .23901367 .29093424 .3042806 .33154298 .34635417 .34814454 .36523438 .37972007 .40071617 .40177409 .43074546 .41430665 .45532228 .4268392 .47989909 .43310548 .50406906 .43310548 .52783206 .43310548 .56656906 .41951499 .59814456 .39233399 .6225586 .36515299 .64697268 .3297526 .6591797 .2861328 .6591797 .25520835 .6591797 .22257488 .6537679 .18823242 .64294436 .15388997 .6321208 .1171875 .61572268 .078125 .59375V.6933594C.11783854 .70947268 .15494792 .721639 .18945313 .7298584 .22395833 .7380778 .25553385 .7421875 .2841797 .7421875 .35970054 .7421875 .41992188 .7233073 .46484376 .6855469 .5097656 .64778646 .53222659 .59733077 .53222659 .5341797 .53222659 .50423178 .5266113 .47583009 .51538088 .4489746 .5041504 .42211915 .48372398 .39046226 .45410157 .3540039 .44596354 .3445638 .42008464 .31730143 .37646485 .2722168 .33284507 .22713216 .27132163 .1640625 .19189453 .08300781Z"/>
<path id="font_4_23" d="M.3779297 .64346316 .12890625 .25390626H.3779297V.64346316M.35205079 .7294922H.47607423V.25390626H.5800781V.171875H.47607423V0H.3779297V.171875H.048828126V.26716615L.35205079 .7294922Z"/>
<path id="font_4_25" d="M.33007813 .4033203C.28580729 .4033203 .25073243 .3881836 .22485352 .35791017 .19897461 .32763673 .18603516 .2861328 .18603516 .23339844 .18603516 .18098958 .19897461 .13956706 .22485352 .10913086 .25073243 .078694667 .28580729 .06347656 .33007813 .06347656 .37434898 .06347656 .40942384 .078694667 .43530274 .10913086 .46118165 .13956706 .4741211 .18098958 .4741211 .23339844 .4741211 .2861328 .46118165 .32763673 .43530274 .35791017 .40942384 .3881836 .37434898 .4033203 .33007813 .4033203M.5258789 .7128906V.6230469C.50113937 .6347656 .4761556 .64371749 .45092774 .64990237 .42569987 .6560872 .40071617 .6591797 .37597657 .6591797 .3108724 .6591797 .26114909 .6371663 .22680664 .59313967 .19246419 .549113 .17285156 .48258464 .16796875 .3935547 .18717449 .421875 .21126302 .44360353 .24023438 .45874024 .26920573 .47387696 .30110679 .4814453 .3359375 .4814453 .4091797 .4814453 .46704103 .45922853 .5095215 .41479493 .55200198 .37036134 .5732422 .30989585 .5732422 .23339844 .5732422 .15852864 .55110678 .098470058 .50683596 .053222658 .4625651 .007975261 .40364585-.0146484379 .33007813-.0146484379 .24576824-.0146484379 .18131511 .01767985 .13671875 .082336429 .0921224 .146993 .06982422 .24072266 .06982422 .3635254 .06982422 .47883097 .09716797 .5707652 .15185547 .639328 .20654297 .707901 .2799479 .7421875 .3720703 .7421875 .3968099 .7421875 .4217936 .7397461 .44702149 .7348633 .47224937 .72998049 .49853517 .72265627 .5258789 .7128906Z"/>
<path id="font_4_27" d="M.3178711 .34570313C.2709961 .34570313 .23413086 .33317057 .20727539 .30810548 .18041992 .28304038 .16699219 .24853516 .16699219 .20458985 .16699219 .16064453 .18041992 .12613933 .20727539 .10107422 .23413086 .07600912 .2709961 .06347656 .3178711 .06347656 .3647461 .06347656 .40169273 .07609049 .42871095 .10131836 .45572917 .12654622 .46923829 .16097005 .46923829 .20458985 .46923829 .24853516 .45581056 .28304038 .42895509 .30810548 .4020996 .33317057 .36507163 .34570313 .3178711 .34570313M.21923828 .3879547C.17692058 .39838157 .1439616 .41808573 .12036133 .44706727 .09676107 .47605897 .08496094 .5114034 .08496094 .5531006 .08496094 .6114095 .10571289 .6575012 .1472168 .69137576 .1887207 .72525027 .24560547 .7421875 .3178711 .7421875 .39046226 .7421875 .44742839 .72525027 .48876954 .69137576 .53011068 .6575012 .55078127 .6114095 .55078127 .5531006 .55078127 .5114034 .53898116 .47605897 .51538088 .44706727 .4917806 .41808573 .45898438 .39838157 .4169922 .3879547 .46451823 .37687684 .5015462 .35521446 .5280762 .32296754 .55460616 .2907206 .5678711 .25130717 .5678711 .20472718 .5678711 .13404846 .54630538 .07981364 .5031738 .042022706 .46004234 .0042419435 .39827476-.0146484379 .3178711-.0146484379 .23746746-.0146484379 .17569988 .0042419435 .13256836 .042022706 .08943685 .07981364 .067871097 .13404846 .067871097 .20472718 .067871097 .25130717 .081217449 .2907206 .107910159 .32296754 .13460286 .35521446 .17171224 .37687684 .21923828 .3879547M.18310547 .5439453C.18310547 .5061849 .1949056 .47672526 .21850586 .4555664 .24210613 .43440757 .27522788 .42382813 .3178711 .42382813 .3601888 .42382813 .39331056 .43440757 .41723634 .4555664 .4411621 .47672526 .453125 .5061849 .453125 .5439453 .453125 .58170577 .4411621 .61116537 .41723634 .6323242 .39331056 .6534831 .3601888 .6640625 .3178711 .6640625 .27522788 .6640625 .24210613 .6534831 .21850586 .6323242 .1949056 .61116537 .18310547 .58170577 .18310547 .5439453Z"/>
<path id="font_4_49" d="M.09814453 .7294922H.23095703L.5541992 .11921692V.7294922H.64990237V0H.51708987L.19384766 .61027529V0H.09814453V.7294922Z"/>
<path id="font_4_82" d="M.30615235 .484375C.25797526 .484375 .21988933 .4655304 .19189453 .4278412 .16389974 .39016215 .14990235 .3385315 .14990235 .27294923 .14990235 .20736695 .16381836 .1557312 .19165039 .11804199 .21948242 .08036295 .25764976 .061523439 .30615235 .061523439 .3540039 .061523439 .3919271 .080444339 .41992188 .11828613 .44791667 .1561381 .46191407 .20769246 .46191407 .27294923 .46191407 .33788047 .44791667 .38934837 .41992188 .4273529 .3919271 .46536765 .3540039 .484375 .30615235 .484375M.30615235 .5605469C.38427735 .5605469 .44563804 .5351105 .49023438 .48423768 .53483077 .43337504 .5571289 .36294557 .5571289 .27294923 .5571289 .1832784 .53483077 .11292521 .49023438 .06188965 .44563804 .010864258 .38427735-.0146484379 .30615235-.0146484379 .22770183-.0146484379 .16625977 .010864258 .12182617 .06188965 .07739258 .11292521 .05517578 .1832784 .05517578 .27294923 .05517578 .36294557 .07739258 .43337504 .12182617 .48423768 .16625977 .5351105 .22770183 .5605469 .30615235 .5605469Z"/>
<path id="font_4_85" d="M.4111328 .46289063C.40104167 .46891276 .39005534 .473348 .37817384 .4761963 .36629234 .4790446 .3531901 .48046876 .3388672 .48046876 .28808595 .48046876 .24910482 .4639028 .22192383 .43077088 .19474285 .39764915 .18115235 .3500875 .18115235 .28808595V0H.09082031V.546875H.18115235V.46191407C.20003255 .49527995 .22460938 .52006027 .2548828 .5362549 .28515626 .5524495 .3219401 .5605469 .36523438 .5605469 .37141929 .5605469 .37825523 .56013998 .3857422 .5593262 .39322917 .5585124 .40152995 .5572917 .41064454 .55566409L.4111328 .46289063Z"/>
<path id="font_4_80" d="M.52001956 .44189454C.54248049 .48242188 .56933596 .5123291 .60058596 .5316162 .63183596 .5509033 .6686198 .5605469 .7109375 .5605469 .7679036 .5605469 .81184896 .5405629 .84277346 .5005951 .87369796 .46063743 .88916018 .40379844 .88916018 .33007813V0H.7988281V.32714845C.7988281 .37972007 .7895508 .41874186 .7709961 .44421388 .7524414 .46968589 .7241211 .48242188 .68603518 .48242188 .63948568 .48242188 .60270187 .46691386 .5756836 .43589784 .54866537 .40489198 .53515627 .36262004 .53515627 .30908204V0H.44482423V.32714845C.44482423 .38004557 .43554688 .41914878 .4169922 .444458 .3984375 .46976725 .36979167 .48242188 .3310547 .48242188 .28515626 .48242188 .24869792 .4668325 .22167969 .4356537 .19466146 .40448509 .18115235 .36229453 .18115235 .30908204V0H.09082031V.546875H.18115235V.46191407C.20166016 .49560548 .22623699 .5204671 .2548828 .536499 .28352867 .55253097 .31754557 .5605469 .3569336 .5605469 .39664714 .5605469 .43041993 .55041506 .45825196 .53015139 .48608399 .5098877 .50667318 .48046876 .52001956 .44189454Z"/>
<path id="font_4_68" d="M.34277345 .27539063C.27018229 .27539063 .21988933 .26704917 .19189453 .2503662 .16389974 .23369344 .14990235 .20524597 .14990235 .1650238 .14990235 .13298035 .16040039 .107554119 .18139649 .08874512 .20239258 .06994629 .23095703 .060546876 .26708985 .060546876 .31689454 .060546876 .3568522 .07828776 .3869629 .11376953 .41707359 .14926148 .4321289 .19644673 .4321289 .25532533V.27539063H.34277345M.52197268 .3125V0H.4321289V.08300781C.4116211 .049641927 .38606773 .025024414 .35546876 .009155273 .32486979-.006713867 .2874349-.0146484379 .24316406-.0146484379 .18717449-.0146484379 .1426595 .0010986328 .10961914 .032592775 .07657877 .064097087 .060058595 .106287639 .060058595 .15916443 .060058595 .22085063 .08064779 .2673594 .12182617 .2986908 .16300456 .33003236 .22444661 .34570313 .30615235 .34570313H.4321289V.3544922C.4321289 .39583335 .41853843 .42781578 .39135743 .45043946 .36417643 .47306315 .32600913 .484375 .27685548 .484375 .24560547 .484375 .21516927 .4806315 .18554688 .47314454 .15592449 .46565757 .1274414 .4544271 .100097659 .43945313V.52246096C.13297527 .53515627 .1648763 .54467776 .19580078 .5510254 .22672527 .55737307 .25683595 .5605469 .2861328 .5605469 .36523438 .5605469 .4243164 .54003909 .4633789 .49902345 .5024414 .4580078 .52197268 .39583335 .52197268 .3125Z"/>
<path id="font_4_79" d="M.09423828 .7597656H.18408203V0H.09423828V.7597656Z"/>
<path id="font_4_76" d="M.09423828 .546875H.18408203V0H.09423828V.546875M.09423828 .7597656H.18408203V.6455078H.09423828V.7597656Z"/>
<path id="font_4_93" d="M.05517578 .546875H.4819336V.4649353L.14404297 .072265628H.4819336V0H.04296875V.0819397L.38085938 .47460938H.05517578V.546875Z"/>
<path id="font_4_72" d="M.5620117 .29589845V.25195313H.14892578C.15283203 .1899414 .1714681 .1427002 .20483399 .11022949 .23819988 .07775879 .28466798 .061523439 .34423829 .061523439 .3787435 .061523439 .41219078 .06575521 .44458009 .07421875 .4769694 .08268229 .50911459 .0953776 .5410156 .11230469V.02734375C.50878909 .013671875 .4757487 .0032552083 .44189454-.00390625 .40804038-.011067708 .3736979-.0146484379 .3388672-.0146484379 .2516276-.0146484379 .18253581 .010782878 .1315918 .061645509 .08064779 .11251831 .05517578 .18132019 .05517578 .26805116 .05517578 .35772196 .0793457 .42888896 .12768555 .48155213 .17602539 .5342153 .24121094 .5605469 .3232422 .5605469 .3968099 .5605469 .45499674 .53681948 .49780274 .48936463 .5406087 .44191996 .5620117 .37743125 .5620117 .29589845M.47216798 .32226563C.47151695 .37157188 .45776368 .4109141 .4309082 .44029237 .40405274 .4696808 .3684896 .484375 .32421876 .484375 .27408854 .484375 .2339681 .47016908 .20385742 .4417572 .17374675 .4133555 .15641277 .3733622 .15185547 .32177735L.47216798 .32226563Z"/>
<path id="font_4_71" d="M.45410157 .4638672V.7597656H.5439453V0H.45410157V.08203125C.43522135 .049316408 .41137696 .025024414 .38256837 .009155273 .35375978-.006713867 .3191732-.0146484379 .2788086-.0146484379 .21272786-.0146484379 .15893555 .011764526 .11743164 .064590457 .075927738 .11741638 .05517578 .18686931 .05517578 .27294923 .05517578 .35902915 .075927738 .42848207 .11743164 .48130799 .15893555 .5341339 .21272786 .5605469 .2788086 .5605469 .3191732 .5605469 .35375978 .5526123 .38256837 .53674319 .41137696 .520874 .43522135 .49658204 .45410157 .4638672M.14794922 .27294923C.14794922 .2067159 .16153972 .15475464 .1887207 .11706543 .21590169 .07938639 .25325523 .060546876 .30078126 .060546876 .34830729 .060546876 .3857422 .07938639 .41308595 .11706543 .4404297 .15475464 .45410157 .2067159 .45410157 .27294923 .45410157 .33918254 .4404297 .3911387 .41308595 .42881776 .3857422 .46650697 .34830729 .48535157 .30078126 .48535157 .25325523 .48535157 .21590169 .46650697 .1887207 .42881776 .16153972 .3911387 .14794922 .33918254 .14794922 .27294923Z"/>
<path id="font_4_3" d="M0 0Z"/>
<path id="font_4_36" d="M.34179688 .6323242 .20800781 .26953126H.47607423L.34179688 .6323242M.2861328 .7294922H.39794923L.67578127 0H.5732422L.50683596 .1875H.17822266L.111816409 0H.0078125L.2861328 .7294922Z"/>
<path id="font_5_19" d="M.3178711 .6640625C.26708985 .6640625 .22892253 .6390584 .20336914 .5890503 .17781575 .5390422 .16503906 .4638672 .16503906 .3635254 .16503906 .26350913 .17781575 .1884969 .20336914 .13848877 .22892253 .08848063 .26708985 .06347656 .3178711 .06347656 .36897788 .06347656 .40730796 .08848063 .43286134 .13848877 .4584147 .1884969 .4711914 .26350913 .4711914 .3635254 .4711914 .4638672 .4584147 .5390422 .43286134 .5890503 .40730796 .6390584 .36897788 .6640625 .3178711 .6640625M.3178711 .7421875C.3995768 .7421875 .46199546 .7098592 .50512698 .64520266 .5482585 .5805461 .5698242 .48665367 .5698242 .3635254 .5698242 .24072266 .5482585 .146993 .50512698 .082336429 .46199546 .01767985 .3995768-.0146484379 .3178711-.0146484379 .23616536-.0146484379 .17374675 .01767985 .13061524 .082336429 .08748373 .146993 .06591797 .24072266 .06591797 .3635254 .06591797 .48665367 .08748373 .5805461 .13061524 .64520266 .17374675 .7098592 .23616536 .7421875 .3178711 .7421875Z"/>
<path id="font_5_17" d="M.106933597 .12402344H.20996094V0H.106933597V.12402344Z"/>
<path id="font_5_24" d="M.107910159 .7294922H.4951172V.6464844H.19824219V.46777345C.21256511 .47265626 .22688802 .47631837 .24121094 .47875978 .25553385 .48120118 .26985679 .48242188 .2841797 .48242188 .3655599 .48242188 .43001304 .4600779 .47753907 .41539 .5250651 .37071229 .5488281 .31021119 .5488281 .23388672 .5488281 .15528362 .52441409 .09420776 .47558595 .05065918 .4267578 .007120768 .35791017-.0146484379 .26904298-.0146484379 .23844402-.0146484379 .20727539-.0120442709 .17553711-.0068359377 .14379883-.0016276041 .1110026 .006184896 .07714844 .016601563V.11621094C.10644531 .100097659 .13671875 .08809408 .16796875 .080200199 .19921875 .07230631 .23225911 .068359378 .26708985 .068359378 .32340495 .068359378 .3680013 .083211269 .4008789 .11291504 .4337565 .14262899 .4501953 .18295288 .4501953 .23388672 .4501953 .28482057 .4337565 .32513938 .4008789 .35484315 .3680013 .3845571 .32340495 .39941407 .26708985 .39941407 .24072266 .39941407 .21443685 .39648438 .18823242 .390625 .162028 .38476563 .1352539 .37565104 .107910159 .36328126V.7294922Z"/>
<path id="font_5_25" d="M.33007813 .4033203C.28580729 .4033203 .25073243 .3881836 .22485352 .35791017 .19897461 .32763673 .18603516 .2861328 .18603516 .23339844 .18603516 .18098958 .19897461 .13956706 .22485352 .10913086 .25073243 .078694667 .28580729 .06347656 .33007813 .06347656 .37434898 .06347656 .40942384 .078694667 .43530274 .10913086 .46118165 .13956706 .4741211 .18098958 .4741211 .23339844 .4741211 .2861328 .46118165 .32763673 .43530274 .35791017 .40942384 .3881836 .37434898 .4033203 .33007813 .4033203M.5258789 .7128906V.6230469C.50113937 .6347656 .4761556 .64371749 .45092774 .64990237 .42569987 .6560872 .40071617 .6591797 .37597657 .6591797 .3108724 .6591797 .26114909 .6371663 .22680664 .59313967 .19246419 .549113 .17285156 .48258464 .16796875 .3935547 .18717449 .421875 .21126302 .44360353 .24023438 .45874024 .26920573 .47387696 .30110679 .4814453 .3359375 .4814453 .4091797 .4814453 .46704103 .45922853 .5095215 .41479493 .55200198 .37036134 .5732422 .30989585 .5732422 .23339844 .5732422 .15852864 .55110678 .098470058 .50683596 .053222658 .4625651 .007975261 .40364585-.0146484379 .33007813-.0146484379 .24576824-.0146484379 .18131511 .01767985 .13671875 .082336429 .0921224 .146993 .06982422 .24072266 .06982422 .3635254 .06982422 .47883097 .09716797 .5707652 .15185547 .639328 .20654297 .707901 .2799479 .7421875 .3720703 .7421875 .3968099 .7421875 .4217936 .7397461 .44702149 .7348633 .47224937 .72998049 .49853517 .72265627 .5258789 .7128906Z"/>
<path id="font_5_20" d="M.12402344 .08300781H.28515626V.63964846L.10986328 .6044922V.69433596L.2841797 .7294922H.3828125V.08300781H.5439453V0H.12402344V.08300781Z"/>
<path id="font_5_26" d="M.08203125 .7294922H.55078127V.6874695L.2861328 0H.18310547L.4321289 .6464844H.08203125V.7294922Z"/>
<path id="font_5_22" d="M.40576173 .3935547C.45296226 .3834432 .48982749 .36239625 .5163574 .33041383 .5428874 .29844157 .55615237 .258962 .55615237 .2119751 .55615237 .13986206 .5314128 .08406067 .4819336 .044570924 .43245445 .005091349 .36214195-.0146484379 .2709961-.0146484379 .24039714-.0146484379 .208903-.01163737 .17651367-.0056152346 .14412435 .00040690104 .110677089 .0094401049 .076171878 .021484375V.1171875C.103515628 .10107422 .13346355 .088907878 .16601563 .08068848 .1985677 .07246908 .23258464 .068359378 .2680664 .068359378 .32991538 .068359378 .37703453 .080607097 .40942384 .10510254 .44181315 .12960816 .4580078 .16521709 .4580078 .21192932 .4580078 .2550405 .44295249 .28876243 .4128418 .3130951 .3827311 .33743797 .3408203 .34960938 .28710938 .34960938H.20214844V.43066407H.29101563C.33951823 .43066407 .3766276 .44032798 .40234376 .45965577 .4280599 .47898356 .44091798 .50683596 .44091798 .5432129 .44091798 .5805664 .42765299 .6092326 .40112306 .6292114 .3745931 .64919027 .33658854 .6591797 .28710938 .6591797 .26009117 .6591797 .2311198 .65625 .20019531 .6503906 .16927083 .64453127 .1352539 .6354167 .09814453 .6230469V.7109375C.13557942 .7213542 .1706543 .7291667 .20336914 .734375 .23608399 .7395833 .2669271 .7421875 .29589845 .7421875 .37076823 .7421875 .43001304 .7251994 .4736328 .69122317 .5172526 .6572571 .5390625 .6113434 .5390625 .55348208 .5390625 .5131785 .52750656 .47913108 .50439456 .45133973 .48128257 .42354838 .44840495 .4042867 .40576173 .3935547Z"/>
<path id="font_6_19" d="M.3178711 .6640625C.26708985 .6640625 .22892253 .6390584 .20336914 .5890503 .17781575 .5390422 .16503906 .4638672 .16503906 .3635254 .16503906 .26350913 .17781575 .1884969 .20336914 .13848877 .22892253 .08848063 .26708985 .06347656 .3178711 .06347656 .36897788 .06347656 .40730796 .08848063 .43286134 .13848877 .4584147 .1884969 .4711914 .26350913 .4711914 .3635254 .4711914 .4638672 .4584147 .5390422 .43286134 .5890503 .40730796 .6390584 .36897788 .6640625 .3178711 .6640625M.3178711 .7421875C.3995768 .7421875 .46199546 .7098592 .50512698 .64520266 .5482585 .5805461 .5698242 .48665367 .5698242 .3635254 .5698242 .24072266 .5482585 .146993 .50512698 .082336429 .46199546 .01767985 .3995768-.0146484379 .3178711-.0146484379 .23616536-.0146484379 .17374675 .01767985 .13061524 .082336429 .08748373 .146993 .06591797 .24072266 .06591797 .3635254 .06591797 .48665367 .08748373 .5805461 .13061524 .64520266 .17374675 .7098592 .23616536 .7421875 .3178711 .7421875Z"/>
<path id="font_6_17" d="M.106933597 .12402344H.20996094V0H.106933597V.12402344Z"/>
<path id="font_6_24" d="M.107910159 .7294922H.4951172V.6464844H.19824219V.46777345C.21256511 .47265626 .22688802 .47631837 .24121094 .47875978 .25553385 .48120118 .26985679 .48242188 .2841797 .48242188 .3655599 .48242188 .43001304 .4600779 .47753907 .41539 .5250651 .37071229 .5488281 .31021119 .5488281 .23388672 .5488281 .15528362 .52441409 .09420776 .47558595 .05065918 .4267578 .007120768 .35791017-.0146484379 .26904298-.0146484379 .23844402-.0146484379 .20727539-.0120442709 .17553711-.0068359377 .14379883-.0016276041 .1110026 .006184896 .07714844 .016601563V.11621094C.10644531 .100097659 .13671875 .08809408 .16796875 .080200199 .19921875 .07230631 .23225911 .068359378 .26708985 .068359378 .32340495 .068359378 .3680013 .083211269 .4008789 .11291504 .4337565 .14262899 .4501953 .18295288 .4501953 .23388672 .4501953 .28482057 .4337565 .32513938 .4008789 .35484315 .3680013 .3845571 .32340495 .39941407 .26708985 .39941407 .24072266 .39941407 .21443685 .39648438 .18823242 .390625 .162028 .38476563 .1352539 .37565104 .107910159 .36328126V.7294922Z"/>
<path id="font_6_21" d="M.19189453 .08300781H.5361328V0H.07324219V.08300781C.110677089 .12174479 .16170247 .17374675 .22631836 .23901367 .29093424 .3042806 .33154298 .34635417 .34814454 .36523438 .37972007 .40071617 .40177409 .43074546 .41430665 .45532228 .4268392 .47989909 .43310548 .50406906 .43310548 .52783206 .43310548 .56656906 .41951499 .59814456 .39233399 .6225586 .36515299 .64697268 .3297526 .6591797 .2861328 .6591797 .25520835 .6591797 .22257488 .6537679 .18823242 .64294436 .15388997 .6321208 .1171875 .61572268 .078125 .59375V.6933594C.11783854 .70947268 .15494792 .721639 .18945313 .7298584 .22395833 .7380778 .25553385 .7421875 .2841797 .7421875 .35970054 .7421875 .41992188 .7233073 .46484376 .6855469 .5097656 .64778646 .53222659 .59733077 .53222659 .5341797 .53222659 .50423178 .5266113 .47583009 .51538088 .4489746 .5041504 .42211915 .48372398 .39046226 .45410157 .3540039 .44596354 .3445638 .42008464 .31730143 .37646485 .2722168 .33284507 .22713216 .27132163 .1640625 .19189453 .08300781Z"/>
<path id="font_6_23" d="M.3779297 .64346316 .12890625 .25390626H.3779297V.64346316M.35205079 .7294922H.47607423V.25390626H.5800781V.171875H.47607423V0H.3779297V.171875H.048828126V.26716615L.35205079 .7294922Z"/>
<path id="font_6_25" d="M.33007813 .4033203C.28580729 .4033203 .25073243 .3881836 .22485352 .35791017 .19897461 .32763673 .18603516 .2861328 .18603516 .23339844 .18603516 .18098958 .19897461 .13956706 .22485352 .10913086 .25073243 .078694667 .28580729 .06347656 .33007813 .06347656 .37434898 .06347656 .40942384 .078694667 .43530274 .10913086 .46118165 .13956706 .4741211 .18098958 .4741211 .23339844 .4741211 .2861328 .46118165 .32763673 .43530274 .35791017 .40942384 .3881836 .37434898 .4033203 .33007813 .4033203M.5258789 .7128906V.6230469C.50113937 .6347656 .4761556 .64371749 .45092774 .64990237 .42569987 .6560872 .40071617 .6591797 .37597657 .6591797 .3108724 .6591797 .26114909 .6371663 .22680664 .59313967 .19246419 .549113 .17285156 .48258464 .16796875 .3935547 .18717449 .421875 .21126302 .44360353 .24023438 .45874024 .26920573 .47387696 .30110679 .4814453 .3359375 .4814453 .4091797 .4814453 .46704103 .45922853 .5095215 .41479493 .55200198 .37036134 .5732422 .30989585 .5732422 .23339844 .5732422 .15852864 .55110678 .098470058 .50683596 .053222658 .4625651 .007975261 .40364585-.0146484379 .33007813-.0146484379 .24576824-.0146484379 .18131511 .01767985 .13671875 .082336429 .0921224 .146993 .06982422 .24072266 .06982422 .3635254 .06982422 .47883097 .09716797 .5707652 .15185547 .639328 .20654297 .707901 .2799479 .7421875 .3720703 .7421875 .3968099 .7421875 .4217936 .7397461 .44702149 .7348633 .47224937 .72998049 .49853517 .72265627 .5258789 .7128906Z"/>
<path id="font_6_20" d="M.12402344 .08300781H.28515626V.63964846L.10986328 .6044922V.69433596L.2841797 .7294922H.3828125V.08300781H.5439453V0H.12402344V.08300781Z"/>
<path id="font_5_23" d="M.3779297 .64346316 .12890625 .25390626H.3779297V.64346316M.35205079 .7294922H.47607423V.25390626H.5800781V.171875H.47607423V0H.3779297V.171875H.048828126V.26716615L.35205079 .7294922Z"/>
<path id="font_6_27" d="M.3178711 .34570313C.2709961 .34570313 .23413086 .33317057 .20727539 .30810548 .18041992 .28304038 .16699219 .24853516 .16699219 .20458985 .16699219 .16064453 .18041992 .12613933 .20727539 .10107422 .23413086 .07600912 .2709961 .06347656 .3178711 .06347656 .3647461 .06347656 .40169273 .07609049 .42871095 .10131836 .45572917 .12654622 .46923829 .16097005 .46923829 .20458985 .46923829 .24853516 .45581056 .28304038 .42895509 .30810548 .4020996 .33317057 .36507163 .34570313 .3178711 .34570313M.21923828 .3879547C.17692058 .39838157 .1439616 .41808573 .12036133 .44706727 .09676107 .47605897 .08496094 .5114034 .08496094 .5531006 .08496094 .6114095 .10571289 .6575012 .1472168 .69137576 .1887207 .72525027 .24560547 .7421875 .3178711 .7421875 .39046226 .7421875 .44742839 .72525027 .48876954 .69137576 .53011068 .6575012 .55078127 .6114095 .55078127 .5531006 .55078127 .5114034 .53898116 .47605897 .51538088 .44706727 .4917806 .41808573 .45898438 .39838157 .4169922 .3879547 .46451823 .37687684 .5015462 .35521446 .5280762 .32296754 .55460616 .2907206 .5678711 .25130717 .5678711 .20472718 .5678711 .13404846 .54630538 .07981364 .5031738 .042022706 .46004234 .0042419435 .39827476-.0146484379 .3178711-.0146484379 .23746746-.0146484379 .17569988 .0042419435 .13256836 .042022706 .08943685 .07981364 .067871097 .13404846 .067871097 .20472718 .067871097 .25130717 .081217449 .2907206 .107910159 .32296754 .13460286 .35521446 .17171224 .37687684 .21923828 .3879547M.18310547 .5439453C.18310547 .5061849 .1949056 .47672526 .21850586 .4555664 .24210613 .43440757 .27522788 .42382813 .3178711 .42382813 .3601888 .42382813 .39331056 .43440757 .41723634 .4555664 .4411621 .47672526 .453125 .5061849 .453125 .5439453 .453125 .58170577 .4411621 .61116537 .41723634 .6323242 .39331056 .6534831 .3601888 .6640625 .3178711 .6640625 .27522788 .6640625 .24210613 .6534831 .21850586 .6323242 .1949056 .61116537 .18310547 .58170577 .18310547 .5439453Z"/>
</defs>
<path transform="matrix(.73071429,0,0,.73071429,6.75,6.75)" d="M0 0H699V905H0Z" fill="#ffffff"/>
<g clip-path="url(#clip_1)">
<path transform="matrix(1.4614285,0,0,1.4614285,6.75,6.75)" d="M30 50H330V410H30Z" fill="#e5ecf6"/>
<path transform="matrix(1.4614285,0,0,1.4614285,160.2,6.75)" stroke-width="1" stroke-linecap="butt" stroke-miterlimit="4" stroke-linejoin="miter" fill="none" stroke="#ffffff" d="M0 50V410"/>
<path transform="matrix(1.4614285,0,0,1.4614285,269.80714,6.75)" stroke-width="1" stroke-linecap="butt" stroke-miterlimit="4" stroke-linejoin="miter" fill="none" stroke="#ffffff" d="M0 50V410"/>
<path transform="matrix(1.4614285,0,0,1.4614285,379.4143,6.75)" stroke-width="1" stroke-linecap="butt" stroke-miterlimit="4" stroke-linejoin="miter" fill="none" stroke="#ffffff" d="M0 50V410"/>
<path transform="matrix(1.4614285,0,0,1.4614285,50.592859,6.75)" stroke-width="2" stroke-linecap="butt" stroke-miterlimit="4" stroke-linejoin="miter" fill="none" stroke="#ffffff" d="M0 50V410"/>
</g>
<g clip-path="url(#clip_2)">
<path transform="matrix(1.4614285,0,0,1.4614285,50.592859,79.82143)" d="M0 319.5H210.31V355.5H0Z" fill="#7f7f7f"/>
<path transform="matrix(1.4614285,0,0,1.4614285,50.592859,79.82143)" stroke-width=".5" stroke-linecap="butt" stroke-miterlimit="4" stroke-linejoin="miter" fill="none" stroke="#e5ecf6" d="M0 319.5H210.31V355.5H0Z"/>
<path transform="matrix(1.4614285,0,0,1.4614285,50.592859,79.82143)" d="M0 274.5H214.69V310.5H0Z" fill="#d62728"/>
<path transform="matrix(1.4614285,0,0,1.4614285,50.592859,79.82143)" stroke-width=".5" stroke-linecap="butt" stroke-miterlimit="4" stroke-linejoin="miter" fill="none" stroke="#e5ecf6" d="M0 274.5H214.69V310.5H0Z"/>
<path transform="matrix(1.4614285,0,0,1.4614285,50.592859,79.82143)" d="M0 229.5H196.62V265.5H0Z" fill="#e377c2"/>
<path transform="matrix(1.4614285,0,0,1.4614285,50.592859,79.82143)" stroke-width=".5" stroke-linecap="butt" stroke-miterlimit="4" stroke-linejoin="miter" fill="none" stroke="#e5ecf6" d="M0 229.5H196.62V265.5H0Z"/>
<path transform="matrix(1.4614285,0,0,1.4614285,50.592859,79.82143)" d="M0 184.5H114.69V220.5H0Z" fill="#8c564b"/>
<path transform="matrix(1.4614285,0,0,1.4614285,50.592859,79.82143)" stroke-width=".5" stroke-linecap="butt" stroke-miterlimit="4" stroke-linejoin="miter" fill="none" stroke="#e5ecf6" d="M0 184.5H114.69V220.5H0Z"/>
<path transform="matrix(1.4614285,0,0,1.4614285,50.592859,79.82143)" d="M0 139.5H23V175.5H0Z" fill="#9467bd"/>
<path transform="matrix(1.4614285,0,0,1.4614285,50.592859,79.82143)" stroke-width=".5" stroke-linecap="butt" stroke-miterlimit="4" stroke-linejoin="miter" fill="none" stroke="#e5ecf6" d="M0 139.5H23V175.5H0Z"/>
<path transform="matrix(1.4614285,0,0,1.4614285,50.592859,79.82143)" d="M0 94.5H7.5299999V130.5H0Z" fill="#2ca02c"/>
<path transform="matrix(1.4614285,0,0,1.4614285,50.592859,79.82143)" stroke-width=".5" stroke-linecap="butt" stroke-miterlimit="4" stroke-linejoin="miter" fill="none" stroke="#e5ecf6" d="M0 94.5H7.5299999V130.5H0Z"/>
<path transform="matrix(1.4614285,0,0,1.4614285,50.592859,79.82143)" d="M0 49.5H154.19V85.5H0Z" fill="#1f77b4"/>
<path transform="matrix(1.4614285,0,0,1.4614285,50.592859,79.82143)" stroke-width=".5" stroke-linecap="butt" stroke-miterlimit="4" stroke-linejoin="miter" fill="none" stroke="#e5ecf6" d="M0 49.5H154.19V85.5H0Z"/>
<path transform="matrix(1.4614285,0,0,1.4614285,50.592859,79.82143)" d="M0 4.5H256.82V40.5H0Z" fill="#ffd700"/>
<path transform="matrix(1.4614285,0,0,1.4614285,50.592859,79.82143)" stroke-width=".5" stroke-linecap="butt" stroke-miterlimit="4" stroke-linejoin="miter" fill="none" stroke="#e5ecf6" d="M0 4.5H256.82V40.5H0Z"/>
<path transform="matrix(1.4614285,0,0,1.4614285,50.592859,79.82143)" d="M251.3 333.5V341.5M251.3 337.5H210.31M210.31 333.5V341.5"/>
<path transform="matrix(1.4614285,0,0,1.4614285,50.592859,79.82143)" stroke-width="2" stroke-linecap="butt" stroke-miterlimit="4" stroke-linejoin="miter" fill="none" stroke="#2a3f5f" d="M251.3 333.5V341.5M251.3 337.5H210.31M210.31 333.5V341.5"/>
<path transform="matrix(1.4614285,0,0,1.4614285,50.592859,79.82143)" d="M259.84 288.5V296.5M259.84 292.5H214.69M214.69 288.5V296.5"/>
<path transform="matrix(1.4614285,0,0,1.4614285,50.592859,79.82143)" stroke-width="2" stroke-linecap="butt" stroke-miterlimit="4" stroke-linejoin="miter" fill="none" stroke="#2a3f5f" d="M259.84 288.5V296.5M259.84 292.5H214.69M214.69 288.5V296.5"/>
<path transform="matrix(1.4614285,0,0,1.4614285,50.592859,79.82143)" d="M249.69 243.5V251.5M249.69 247.5H196.62M196.62 243.5V251.5"/>
<path transform="matrix(1.4614285,0,0,1.4614285,50.592859,79.82143)" stroke-width="2" stroke-linecap="butt" stroke-miterlimit="4" stroke-linejoin="miter" fill="none" stroke="#2a3f5f" d="M249.69 243.5V251.5M249.69 247.5H196.62M196.62 243.5V251.5"/>
<path transform="matrix(1.4614285,0,0,1.4614285,50.592859,79.82143)" d="M173.11 198.5V206.5M173.11 202.5H114.69M114.69 198.5V206.5"/>
<path transform="matrix(1.4614285,0,0,1.4614285,50.592859,79.82143)" stroke-width="2" stroke-linecap="butt" stroke-miterlimit="4" stroke-linejoin="miter" fill="none" stroke="#2a3f5f" d="M173.11 198.5V206.5M173.11 202.5H114.69M114.69 198.5V206.5"/>
<path transform="matrix(1.4614285,0,0,1.4614285,50.592859,79.82143)" d="M37.45 153.5V161.5M37.45 157.5H23M23 153.5V161.5"/>
<path transform="matrix(1.4614285,0,0,1.4614285,50.592859,79.82143)" stroke-width="2" stroke-linecap="butt" stroke-miterlimit="4" stroke-linejoin="miter" fill="none" stroke="#2a3f5f" d="M37.45 153.5V161.5M37.45 157.5H23M23 153.5V161.5"/>
<path transform="matrix(1.4614285,0,0,1.4614285,50.592859,79.82143)" d="M13.79 108.5V116.5M13.79 112.5H7.5299999M7.5299999 108.5V116.5"/>
<path transform="matrix(1.4614285,0,0,1.4614285,50.592859,79.82143)" stroke-width="2" stroke-linecap="butt" stroke-miterlimit="4" stroke-linejoin="miter" fill="none" stroke="#2a3f5f" d="M13.79 108.5V116.5M13.79 112.5H7.5299999M7.5299999 108.5V116.5"/>
<path transform="matrix(1.4614285,0,0,1.4614285,50.592859,79.82143)" d="M195.49 63.5V71.5M195.49 67.5H154.19M154.19 63.5V71.5"/>
<path transform="matrix(1.4614285,0,0,1.4614285,50.592859,79.82143)" stroke-width="2" stroke-linecap="butt" stroke-miterlimit="4" stroke-linejoin="miter" fill="none" stroke="#2a3f5f" d="M195.49 63.5V71.5M195.49 67.5H154.19M154.19 63.5V71.5"/>
<path transform="matrix(1.4614285,0,0,1.4614285,50.592859,79.82143)" d="M283.2 18.5V26.5M283.2 22.5H256.82M256.82 18.5V26.5"/>
<path transform="matrix(1.4614285,0,0,1.4614285,50.592859,79.82143)" stroke-width="2" stroke-linecap="butt" stroke-miterlimit="4" stroke-linejoin="miter" fill="none" stroke="#2a3f5f" d="M283.2 18.5V26.5M283.2 22.5H256.82M256.82 18.5V26.5"/>
</g>
<g clip-path="url(#clip_3)">
<use data-text="0" xlink:href="#font_4_19" transform="matrix(21.921429,0,0,-21.921429,43.61682,629.31857)" fill="#2a3f5f"/>
<use data-text="0" xlink:href="#font_4_19" transform="matrix(21.921429,0,0,-21.921429,142.76561,629.31857)" fill="#2a3f5f"/>
<use data-text="." xlink:href="#font_4_17" transform="matrix(21.921429,0,0,-21.921429,156.70764,629.31857)" fill="#2a3f5f"/>
<use data-text="2" xlink:href="#font_4_21" transform="matrix(21.921429,0,0,-21.921429,163.67865,629.31857)" fill="#2a3f5f"/>
<use data-text="0" xlink:href="#font_4_19" transform="matrix(21.921429,0,0,-21.921429,252.37274,629.31857)" fill="#2a3f5f"/>
<use data-text="." xlink:href="#font_4_17" transform="matrix(21.921429,0,0,-21.921429,266.31477,629.31857)" fill="#2a3f5f"/>
<use data-text="4" xlink:href="#font_4_23" transform="matrix(21.921429,0,0,-21.921429,273.2858,629.31857)" fill="#2a3f5f"/>
<use data-text="0" xlink:href="#font_4_19" transform="matrix(21.921429,0,0,-21.921429,361.97993,629.31857)" fill="#2a3f5f"/>
<use data-text="." xlink:href="#font_4_17" transform="matrix(21.921429,0,0,-21.921429,375.92195,629.31857)" fill="#2a3f5f"/>
<use data-text="6" xlink:href="#font_4_25" transform="matrix(21.921429,0,0,-21.921429,382.89299,629.31857)" fill="#2a3f5f"/>
<use data-text="0" xlink:href="#font_4_19" transform="matrix(21.921429,0,0,-21.921429,471.58705,629.31857)" fill="#2a3f5f"/>
<use data-text="." xlink:href="#font_4_17" transform="matrix(21.921429,0,0,-21.921429,485.52906,629.31857)" fill="#2a3f5f"/>
<use data-text="8" xlink:href="#font_4_27" transform="matrix(21.921429,0,0,-21.921429,492.5001,629.31857)" fill="#2a3f5f"/>
<use data-text="N" xlink:href="#font_4_49" transform="matrix(29.22857,0,0,-29.22857,141.33844,43.285715)" fill="#2a3f5f"/>
<use data-text="o" xlink:href="#font_4_82" transform="matrix(29.22857,0,0,-29.22857,163.2014,43.285715)" fill="#2a3f5f"/>
<use data-text="r" xlink:href="#font_4_85" transform="matrix(29.22857,0,0,-29.22857,181.08928,43.285715)" fill="#2a3f5f"/>
<use data-text="m" xlink:href="#font_4_80" transform="matrix(29.22857,0,0,-29.22857,192.58834,43.285715)" fill="#2a3f5f"/>
<use data-text="a" xlink:href="#font_4_68" transform="matrix(29.22857,0,0,-29.22857,221.05696,43.285715)" fill="#2a3f5f"/>
<use data-text="l" xlink:href="#font_4_79" transform="matrix(29.22857,0,0,-29.22857,238.97406,43.285715)" fill="#2a3f5f"/>
<use data-text="i" xlink:href="#font_4_76" transform="matrix(29.22857,0,0,-29.22857,247.0996,43.285715)" fill="#2a3f5f"/>
<use data-text="z" xlink:href="#font_4_93" transform="matrix(29.22857,0,0,-29.22857,255.22515,43.285715)" fill="#2a3f5f"/>
<use data-text="e" xlink:href="#font_4_72" transform="matrix(29.22857,0,0,-29.22857,270.57014,43.285715)" fill="#2a3f5f"/>
<use data-text="d" xlink:href="#font_4_71" transform="matrix(29.22857,0,0,-29.22857,288.54573,43.285715)" fill="#2a3f5f"/>
<use data-text=" " xlink:href="#font_4_3" transform="matrix(29.22857,0,0,-29.22857,307.10588,43.285715)" fill="#2a3f5f"/>
<use data-text="A" xlink:href="#font_4_36" transform="matrix(29.22857,0,0,-29.22857,316.40055,43.285715)" fill="#2a3f5f"/>
<use data-text="r" xlink:href="#font_4_85" transform="matrix(29.22857,0,0,-29.22857,336.39289,43.285715)" fill="#2a3f5f"/>
<use data-text="e" xlink:href="#font_4_72" transform="matrix(29.22857,0,0,-29.22857,347.75096,43.285715)" fill="#2a3f5f"/>
<use data-text="a" xlink:href="#font_4_68" transform="matrix(29.22857,0,0,-29.22857,365.7265,43.285715)" fill="#2a3f5f"/>
<use data-text="0" xlink:href="#font_5_19" transform="matrix(26.305714,0,0,-26.305714,268.3457,582.55288)" fill="#ffffff"/>
<use data-text="." xlink:href="#font_5_17" transform="matrix(26.305714,0,0,-26.305714,285.07615,582.55288)" fill="#ffffff"/>
<use data-text="5" xlink:href="#font_5_24" transform="matrix(26.305714,0,0,-26.305714,293.44136,582.55288)" fill="#ffffff"/>
<use data-text="6" xlink:href="#font_5_25" transform="matrix(26.305714,0,0,-26.305714,310.1718,582.55288)" fill="#ffffff"/>
<use data-text="1" xlink:href="#font_5_20" transform="matrix(26.305714,0,0,-26.305714,326.90223,582.55288)" fill="#ffffff"/>
<use data-text="0" xlink:href="#font_5_19" transform="matrix(26.305714,0,0,-26.305714,274.19145,516.7886)" fill="#ffffff"/>
<use data-text="." xlink:href="#font_5_17" transform="matrix(26.305714,0,0,-26.305714,290.92189,516.7886)" fill="#ffffff"/>
<use data-text="5" xlink:href="#font_5_24" transform="matrix(26.305714,0,0,-26.305714,299.2871,516.7886)" fill="#ffffff"/>
<use data-text="7" xlink:href="#font_5_26" transform="matrix(26.305714,0,0,-26.305714,316.01753,516.7886)" fill="#ffffff"/>
<use data-text="3" xlink:href="#font_5_22" transform="matrix(26.305714,0,0,-26.305714,332.74797,516.7886)" fill="#ffffff"/>
<use data-text="0" xlink:href="#font_6_19" transform="matrix(26.305714,0,0,-26.305714,247.88571,451.0243)"/>
<use data-text="." xlink:href="#font_6_17" transform="matrix(26.305714,0,0,-26.305714,264.61616,451.0243)"/>
<use data-text="5" xlink:href="#font_6_24" transform="matrix(26.305714,0,0,-26.305714,272.98139,451.0243)"/>
<use data-text="2" xlink:href="#font_6_21" transform="matrix(26.305714,0,0,-26.305714,289.7118,451.0243)"/>
<use data-text="4" xlink:href="#font_6_23" transform="matrix(26.305714,0,0,-26.305714,306.44224,451.0243)"/>
<use data-text="0" xlink:href="#font_5_19" transform="matrix(26.305714,0,0,-26.305714,128.04857,385.26)" fill="#ffffff"/>
<use data-text="." xlink:href="#font_5_17" transform="matrix(26.305714,0,0,-26.305714,144.779,385.26)" fill="#ffffff"/>
<use data-text="3" xlink:href="#font_5_22" transform="matrix(26.305714,0,0,-26.305714,153.14423,385.26)" fill="#ffffff"/>
<use data-text="0" xlink:href="#font_5_19" transform="matrix(26.305714,0,0,-26.305714,169.87467,385.26)" fill="#ffffff"/>
<use data-text="6" xlink:href="#font_5_25" transform="matrix(26.305714,0,0,-26.305714,186.6051,385.26)" fill="#ffffff"/>
<use data-text="0" xlink:href="#font_6_19" transform="matrix(26.305714,0,0,-26.305714,119.28,319.49574)"/>
<use data-text="." xlink:href="#font_6_17" transform="matrix(26.305714,0,0,-26.305714,136.01044,319.49574)"/>
<use data-text="0" xlink:href="#font_6_19" transform="matrix(26.305714,0,0,-26.305714,144.37564,319.49574)"/>
<use data-text="6" xlink:href="#font_6_25" transform="matrix(26.305714,0,0,-26.305714,161.10608,319.49574)"/>
<use data-text="1" xlink:href="#font_6_20" transform="matrix(26.305714,0,0,-26.305714,177.83652,319.49574)"/>
<use data-text="0" xlink:href="#font_6_19" transform="matrix(26.305714,0,0,-26.305714,84.20572,253.73143)"/>
<use data-text="." xlink:href="#font_6_17" transform="matrix(26.305714,0,0,-26.305714,100.93615,253.73143)"/>
<use data-text="0" xlink:href="#font_6_19" transform="matrix(26.305714,0,0,-26.305714,109.30137,253.73143)"/>
<use data-text="2" xlink:href="#font_6_21" transform="matrix(26.305714,0,0,-26.305714,126.03181,253.73143)"/>
<use data-text="0" xlink:href="#font_6_19" transform="matrix(26.305714,0,0,-26.305714,142.76224,253.73143)"/>
<use data-text="0" xlink:href="#font_5_19" transform="matrix(26.305714,0,0,-26.305714,186.5057,187.96714)" fill="#ffffff"/>
<use data-text="." xlink:href="#font_5_17" transform="matrix(26.305714,0,0,-26.305714,203.23615,187.96714)" fill="#ffffff"/>
<use data-text="4" xlink:href="#font_5_23" transform="matrix(26.305714,0,0,-26.305714,211.60137,187.96714)" fill="#ffffff"/>
<use data-text="1" xlink:href="#font_5_20" transform="matrix(26.305714,0,0,-26.305714,228.3318,187.96714)" fill="#ffffff"/>
<use data-text="1" xlink:href="#font_5_20" transform="matrix(26.305714,0,0,-26.305714,245.06224,187.96714)" fill="#ffffff"/>
<use data-text="0" xlink:href="#font_6_19" transform="matrix(26.305714,0,0,-26.305714,335.57145,122.20286)"/>
<use data-text="." xlink:href="#font_6_17" transform="matrix(26.305714,0,0,-26.305714,352.30189,122.20286)"/>
<use data-text="6" xlink:href="#font_6_25" transform="matrix(26.305714,0,0,-26.305714,360.6671,122.20286)"/>
<use data-text="8" xlink:href="#font_6_27" transform="matrix(26.305714,0,0,-26.305714,377.39753,122.20286)"/>
<use data-text="5" xlink:href="#font_6_24" transform="matrix(26.305714,0,0,-26.305714,394.12797,122.20286)"/>
</g>
</svg>
